<?xml version="1.0" encoding="utf-8"?>
<!-- Generator: Adobe Illustrator 17.0.0, SVG Export Plug-In . SVG Version: 6.00 Build 0)  -->
<!DOCTYPE svg PUBLIC "-//W3C//DTD SVG 1.1//EN" "http://www.w3.org/Graphics/SVG/1.1/DTD/svg11.dtd">
<svg version="1.1" id="Layer_1" xmlns="http://www.w3.org/2000/svg" xmlns:xlink="http://www.w3.org/1999/xlink" x="0px" y="0px"
	 width="1434px" height="388px" viewBox="0 0 1434 388" enable-background="new 0 0 1434 388" xml:space="preserve">
<g>
	<g>
		<path fill="#3498DB" d="M122.388,0h194.05c10.56,2.27,20.42,8.6,25.48,18.34c30.45,52.89,61.01,105.73,91.49,158.61
			c5.93,10.32,5.93,23.78,0,34.11c-30.61,53.09-61.28,106.15-91.87,159.25c-5.15,9.49-14.95,15.6-25.37,17.69h-194.05
			c-10.56-2.28-20.41-8.6-25.47-18.34c-30.46-52.89-61.01-105.73-91.48-158.61c-6.07-10.55-5.9-24.32,0.36-34.75
			c30.64-53.07,61.25-106.16,91.89-159.23C102.598,7.88,112.228,2.08,122.388,0z M125.998,100.33
			c17.37,31.27,35.03,62.38,52.38,93.67c-17.36,31.27-35.04,62.37-52.42,93.63c-1.82,2.54,0.09,6.74,3.32,6.61
			c10.33,0.18,20.68,0.06,31.02,0.05c3.66,0.55,5.01-3.33,6.53-5.84c17.42-31.14,34.96-62.21,52.45-93.32
			c17.97,31.98,35.93,63.96,53.84,95.96c0.89,1.54,2.1,3.33,4.15,3.14c10.66,0.15,21.35,0.14,32.02,0.01
			c3.23,0.13,5.13-4.07,3.32-6.61c-17.38-31.26-35.06-62.36-52.42-93.63c17.34-31.29,35.01-62.4,52.37-93.67
			c1.84-2.51-0.11-6.68-3.29-6.57c-9.32-0.23-18.66,0.04-27.99-0.11c-2.73,0.08-6.41-0.54-7.76,2.52
			c-18.14,32.15-36.11,64.39-54.24,96.54c-18-31.91-35.94-63.85-53.89-95.78c-0.92-1.51-2.05-3.38-4.1-3.16
			c-10.67-0.16-21.36-0.12-32.03-0.03C125.928,93.52,124.138,97.79,125.998,100.33z"/>
	</g>
	<path fill="#3498DB" d="M1269.568,86.33c6.74-2.07,14.72-0.5,19.58,4.79c6.37,6.22,6.45,17.58,0.05,23.81
		c-8.16,8.59-24.51,6.88-30.03-3.86C1253.938,101.87,1259.448,89.13,1269.568,86.33z"/>
	<path fill="#3498DB" d="M543.158,114.85c12.65-0.07,25.3-0.07,37.96,0c10.42,21.05,20.53,42.25,30.96,63.29
		c11.36-20.94,22.36-42.08,33.47-63.16c11.62-0.36,23.25-0.12,34.88-0.13c-16.19,27.8-32.72,55.4-48.96,83.15
		c16.49,28.31,33.27,56.45,49.78,84.75c-12.31,0.03-24.62-0.05-36.92,0.04c-11.71-21.53-22.69-43.46-34.21-65.09
		c-11.79,21.61-23.07,43.5-34.93,65.06c-12.45-0.04-24.9,0.05-37.35-0.05c17.35-27.75,34.93-55.35,52.32-83.08
		c1.03-1.2-0.29-2.59-0.74-3.71C573.958,168.92,558.468,141.93,543.158,114.85z"/>
	<g>
		<path fill="#3498DB" d="M730.178,147.87c15.75-2.22,33.18-1.65,46.85,7.4c13.22,8.86,17.94,25.55,18.15,40.71
			c0.13,28.92,0.08,57.84,0.03,86.76c-9.87,0.01-19.74,0.05-29.61-0.02c-0.09-6.12,0.13-12.24-0.14-18.36
			c-3.8,5.07-7.77,10.16-13.06,13.76c-12.06,8.6-28.15,9.63-42.13,5.85c-11.71-3.1-21.53-12.46-24.83-24.16
			c-3.5-13.84-2.21-30.09,7.18-41.43c8.44-10.09,21.75-14.16,34.37-15.76c12.96-1.78,25.92-3.51,38.87-5.35
			c-0.09-7.17-1.34-14.96-6.47-20.36c-5.12-5.41-12.98-6.84-20.13-6.6c-15.35,0.09-30.28,5.73-42.62,14.7
			c0.05-8.86-0.07-17.71,0.06-26.56C707.058,152.83,718.638,149.88,730.178,147.87z M733.888,222.51c-6.57,1.24-14.1,3.1-17.92,9.13
			c-4.83,8.48-3.8,21.14,4.98,26.7c12.1,7.53,29.67,3.88,38.12-7.54c7.59-9.06,7.01-21.42,6.75-32.51
			C755.168,219.62,744.518,221,733.888,222.51z"/>
	</g>
	<path fill="#3498DB" d="M848.308,170.75c8.22-13.66,22.77-23.65,39.01-23.88c17.46-1.81,35.56,8.78,41.21,25.65
		c7.38-12.8,20.02-22.94,34.92-25.01c15.37-2.49,33.67,0.56,43.17,14.13c7.65,10.78,9.54,24.45,9.69,37.37
		c-0.04,27.91,0.1,55.82-0.06,83.74c-9.98,0.01-19.96,0.01-29.94,0c-0.16-24.58-0.03-49.17-0.06-73.75
		c-0.08-9.85-0.63-20.41-6.09-28.96c-6.02-8.84-18.69-10.26-28.21-7.29c-12.81,5.41-19.41,19.98-19.74,33.26
		c-0.3,25.58,0.01,51.16-0.15,76.73c-9.98,0.02-19.96,0.03-29.93-0.01c-0.09-25.91-0.01-51.82-0.04-77.73
		c-0.06-9.17-1.31-19.12-7.45-26.36c-9.09-9.81-26.65-9.81-35.88-0.17c-7.46,7.42-10.34,18.26-10.47,28.52
		c-0.06,25.25,0.06,50.51-0.05,75.76c-9.98,0-19.95,0-29.92,0c-0.09-44.24-0.04-88.49-0.02-132.73c9.98-0.03,19.97-0.04,29.96,0
		C848.328,156.93,848.218,163.84,848.308,170.75z"/>
	<g>
		<path fill="#3498DB" d="M1054.248,154.95c16.16-6.16,33.73-9.73,51.04-7.51c10.47,1.34,21.04,5.31,28.28,13.26
			c9.15,10.02,11.86,24.14,11.88,37.32c0.02,28.23,0.05,56.47-0.02,84.71c-9.83,0.06-19.66-0.02-29.48,0.05
			c-0.27-6.11,0.05-12.22-0.22-18.32c-2.12,2.54-4.03,5.26-6.29,7.69c-14.65,16.19-41.17,18.06-59.38,7.07
			c-17.4-11.11-19.79-35.75-11.97-53.38c5.69-12.51,18.88-19.55,31.89-21.99c15.32-2.63,30.81-4.23,46.18-6.61
			c-0.11-7.68-1.64-16.16-7.71-21.47c-6.28-5.53-15.24-5.86-23.16-5.27c-13.9,0.89-27.1,6.44-38.38,14.44
			c0.08-8.66-0.18-17.33,0.1-25.98C1048.808,156.84,1051.788,156.14,1054.248,154.95z M1085.388,222.3
			c-6.22,1.09-13.01,2.5-17.56,7.23c-4.55,5.26-5.25,13.03-3.6,19.56c2.88,9.56,13.72,13.99,23.03,13.06
			c12.4-0.16,23.6-9.27,27.19-20.99c2.41-7.38,1.48-15.25,1.6-22.88C1105.828,219.57,1095.608,220.92,1085.388,222.3z"/>
	</g>
	<path fill="#3498DB" d="M1353.438,161.16c14.6-15.74,40.04-18.5,58.8-9.13c14.97,8.01,19.82,25.96,21.04,41.68v89.04
		c-9.99-0.02-19.97,0.03-29.95-0.01c-0.18-26.27,0.1-52.54-0.14-78.81c-0.5-10.64-2.95-23.06-12.68-29.13
		c-13.8-8.02-32.83-1.7-40.08,12.27c-4.85,8.09-5.24,17.77-5.09,26.93c-0.04,22.91,0.12,45.82-0.07,68.73
		c-9.96,0.04-19.91,0.04-29.86,0.01c-0.13-44.23-0.05-88.46-0.04-132.69c9.97-0.09,19.95-0.08,29.93-0.01
		c0.15,7.16-0.06,14.32,0.13,21.49C1348.018,168.01,1350.408,164.32,1353.438,161.16z"/>
	<path fill="#3498DB" d="M1214.118,153.81c8.87-6.82,20.97-7.28,31.47-4.68c0.41,9.95,0.1,19.93,0.17,29.89
		c-9.4-4.86-21.63-6.45-30.9-0.49c-10.92,7.21-15.18,20.95-15.55,33.46c-0.18,23.58,0.03,47.17-0.1,70.75
		c-9.97,0.02-19.94,0.01-29.9,0.01c-0.14-44.24-0.07-88.48-0.03-132.73c9.98-0.04,19.97-0.04,29.95,0.01
		c0.1,8.66-0.14,17.32,0.12,25.99C1202.748,167.77,1206.708,159.23,1214.118,153.81z"/>
	<path fill="#3498DB" d="M1260.278,150.02c9.98-0.04,19.96-0.04,29.95,0.01c0.01,44.23,0.06,88.47-0.02,132.71
		c-9.97,0.02-19.94,0.01-29.9,0.01C1260.168,238.51,1260.238,194.27,1260.278,150.02z"/>
</g>
</svg>
